<svg xmlns="http://www.w3.org/2000/svg" viewBox="0 0 1200 600" role="img"><rect width="1200" height="600" fill="#e8f3f5"/><rect y="360" width="1200" height="240" fill="#2b8ea3"/><path d="M0 430 C220 390 380 450 600 410 C820 370 980 420 1200 385 L1200 600 L0 600 Z" fill="#0f766e"/><rect x="140" y="220" width="170" height="145" fill="#f6d9a8"/><rect x="370" y="190" width="160" height="175" fill="#fff3cf"/><rect x="600" y="235" width="180" height="130" fill="#e8c59b"/><path d="M130 220 L225 150 L320 220 Z" fill="#c45f44"/><path d="M360 190 L450 125 L540 190 Z" fill="#c45f44"/><path d="M590 235 L690 165 L790 235 Z" fill="#c45f44"/><path d="M885 360 C930 290 990 290 1035 360" fill="none" stroke="#fff7df" stroke-width="34"/></svg>
