<svg xmlns="http://www.w3.org/2000/svg" viewBox="0 0 1200 600" role="img"><rect width="1200" height="600" fill="#eef5f3"/><rect y="385" width="1200" height="215" fill="#0f766e"/><circle cx="980" cy="110" r="70" fill="#f2b84b"/><path d="M150 385 H1050 L980 315 H220 Z" fill="#f7d6a0"/><rect x="245" y="235" width="145" height="150" fill="#fff4d6"/><rect x="445" y="205" width="150" height="180" fill="#f1c7a2"/><rect x="650" y="250" width="135" height="135" fill="#fff4d6"/><path d="M230 235 L318 170 L405 235 Z" fill="#b94e3c"/><path d="M430 205 L520 140 L610 205 Z" fill="#b94e3c"/><path d="M635 250 L718 195 L800 250 Z" fill="#b94e3c"/><path d="M105 445 C260 415 345 475 500 445 C655 415 760 470 920 430 C1020 405 1100 410 1200 390 L1200 600 L105 600 Z" fill="#2aa39a"/></svg>
