<svg xmlns="http://www.w3.org/2000/svg" viewBox="0 0 1200 400" role="img" preserveAspectRatio="xMidYMid slice">
<defs>
<linearGradient id="sky" x1="0" y1="0" x2="0" y2="1">
  <stop offset="0" stop-color="#fdf3dd"/><stop offset="0.55" stop-color="#cfe9ec"/><stop offset="1" stop-color="#bfe0e4"/>
</linearGradient>
<linearGradient id="sea" x1="0" y1="0" x2="0" y2="1">
  <stop offset="0" stop-color="#3ba8a0"/><stop offset="1" stop-color="#0f766e"/>
</linearGradient>
<radialGradient id="sunglow" cx="0.5" cy="0.5" r="0.5">
  <stop offset="0" stop-color="#f8cf7a" stop-opacity="0.9"/><stop offset="1" stop-color="#f8cf7a" stop-opacity="0"/>
</radialGradient>
</defs>
<rect width="1200" height="400" fill="url(#sky)"/>
<circle cx="980" cy="96" r="120" fill="url(#sunglow)"/>
<circle cx="980" cy="96" r="42" fill="#f2b84b"/>
<path d="M0 236 C160 190 300 214 460 200 C640 184 760 214 900 202 C1030 192 1120 206 1200 196 L1200 272 L0 272 Z" fill="#7fb5a4" opacity="0.55"/>
<path d="M0 258 C180 224 340 246 520 230 C720 212 880 242 1040 228 C1110 222 1160 230 1200 224 L1200 272 L0 272 Z" fill="#4f9282" opacity="0.75"/>
<rect y="272" width="1200" height="128" fill="url(#sea)"/>
<g stroke="#fff7df" stroke-width="4" stroke-linecap="round" opacity="0.5">
  <path d="M90 306 h56"/><path d="M240 334 h40"/><path d="M420 312 h64"/>
  <path d="M640 342 h44"/><path d="M840 308 h58"/><path d="M1060 330 h48"/>
</g>
<path d="M0 332 C200 318 420 326 640 320 C860 314 1040 324 1200 316 L1200 400 L0 400 Z" fill="#ecd9a8"/>
<path d="M0 332 C200 318 420 326 640 320 C860 314 1040 324 1200 316" fill="none" stroke="#d9bf85" stroke-width="5" opacity="0.7"/>

<g transform="translate(660,40)">
  <path d="M-40 186 C40 120 320 120 400 186 L400 200 L-40 200 Z" fill="#4f9282"/>
  <g stroke="#172026" stroke-width="6" stroke-linejoin="round">
    <rect x="60" y="96" width="60" height="72" fill="#fff7df"/>
    <rect x="120" y="72" width="54" height="96" fill="#f6d9a0"/>
    <rect x="174" y="102" width="58" height="66" fill="#fff7df"/>
    <rect x="232" y="84" width="30" height="84" fill="#d97757"/>
  </g>
  <path d="M54 96 L90 68 L126 96 Z M114 72 L147 46 L180 72 Z M168 102 L203 76 L238 102 Z" fill="#d97757" stroke="#172026" stroke-width="6" stroke-linejoin="round"/>
  <path d="M232 84 L247 60 L262 84 Z" fill="#f2b84b" stroke="#172026" stroke-width="5"/>
  <g fill="#172026" opacity="0.85"><rect x="78" y="120" width="16" height="22"/><rect x="136" y="96" width="16" height="22"/><rect x="192" y="122" width="16" height="22"/></g>
</g>
</svg>