<svg xmlns="http://www.w3.org/2000/svg" viewBox="0 0 1200 600" role="img"><rect width="1200" height="600" fill="#dff4f7"/><circle cx="960" cy="120" r="75" fill="#f2bf55"/><rect y="360" width="1200" height="240" fill="#e9d9a8"/><path d="M0 330 C210 280 370 365 590 315 C800 270 980 330 1200 285 L1200 430 C1000 470 770 405 580 450 C360 500 160 430 0 480 Z" fill="#0f91a3"/><path d="M0 390 C210 350 420 430 650 390 C860 355 1030 390 1200 360 L1200 455 C980 490 770 435 600 470 C375 515 180 455 0 500 Z" fill="#66c3bd"/></svg>
